<mxfile host="app.diagrams.net" modified="2023-11-21T22:38:30.828Z" agent="Mozilla/5.0 (Windows NT 10.0; Win64; x64) AppleWebKit/537.36 (KHTML, like Gecko) Chrome/119.0.0.0 Safari/537.36" etag="6CB4LJ6YQK4GpmxM8HLw" version="22.1.3" type="device">
  <diagram name="PÃ¡gina-1" id="U6DR1OT3KMBMwhjoJ76m">
    <mxGraphModel dx="607" dy="359" grid="1" gridSize="10" guides="1" tooltips="1" connect="1" arrows="1" fold="1" page="1" pageScale="1" pageWidth="827" pageHeight="1169" math="0" shadow="0">
      <root>
        <mxCell id="0" />
        <mxCell id="1" parent="0" />
        <mxCell id="YceY9LNHoyEGBcAT6eJ0-5" value="Vagas" style="swimlane;childLayout=stackLayout;horizontal=1;startSize=50;horizontalStack=0;rounded=1;fontSize=14;fontStyle=0;strokeWidth=2;resizeParent=0;resizeLast=1;shadow=0;dashed=0;align=center;arcSize=4;whiteSpace=wrap;html=1;" vertex="1" parent="1">
          <mxGeometry x="240" y="50" width="160" height="210" as="geometry" />
        </mxCell>
        <mxCell id="YceY9LNHoyEGBcAT6eJ0-6" value="id&lt;br&gt;titulo&lt;br&gt;descricao&lt;br&gt;localizacao&lt;br&gt;nivel&lt;br&gt;contrato&lt;br&gt;salario&lt;br&gt;empresa&lt;br&gt;tecnologias&lt;br&gt;site" style="align=left;strokeColor=none;fillColor=none;spacingLeft=4;fontSize=12;verticalAlign=top;resizable=0;rotatable=0;part=1;html=1;" vertex="1" parent="YceY9LNHoyEGBcAT6eJ0-5">
          <mxGeometry y="50" width="160" height="160" as="geometry" />
        </mxCell>
      </root>
    </mxGraphModel>
  </diagram>
</mxfile>
